<svg xmlns="http://www.w3.org/2000/svg" version="1.1" xmlns:xlink="http://www.w3.org/1999/xlink" xmlns:svgjs="http://svgjs.com/svgjs" width="280" height="280"><svg width="280" height="280" viewBox="0 0 280 280" fill="none" xmlns="http://www.w3.org/2000/svg">
<circle cx="140.348" cy="139.815" r="139.399" fill="#662538"></circle>
<path d="M95.9796 208.579C95.1149 208.176 93.5385 207.015 92.4764 205.998C86.7196 200.486 83.4862 192.497 81.7661 179.534C80.8907 172.936 81.0033 168.49 82.3462 156.624C82.6578 153.87 82.8591 151.564 82.7936 151.498C82.7281 151.433 82.3014 151.643 81.8455 151.965C80.4107 152.979 76.3854 154.88 73.9422 155.696C66.7564 158.099 58.3971 157.771 52.4112 154.852C46.5579 151.998 42.1248 146.794 40.5784 140.961C39.4171 136.581 39.738 129.789 41.3312 125.033C43.7065 117.941 48.5119 113.759 56.4541 111.873C63.3633 110.233 73.6012 110.618 79.9832 112.76C88.2342 115.528 92.4742 121.274 93.5908 131.201C94.0303 135.107 93.5462 148.689 92.5219 161.188C91.2189 177.088 91.2532 180.029 92.8335 187.927C93.9205 193.361 95.1004 196.577 97.9168 201.782C101.488 208.383 101.327 208.016 100.953 208.715C100.478 209.603 98.0349 209.536 95.9796 208.579ZM71.2125 146.894C77.743 144.958 81.8958 141.635 83.2585 137.256C84.6488 132.789 83.3311 127.262 80.1847 124.361C77.1472 121.561 73.2522 120.444 66.5475 120.448C59.309 120.453 55.3586 121.698 52.3845 124.91C50.3834 127.072 49.5552 129.161 49.3563 132.547C48.9943 138.709 51.3918 143.506 56.06 145.958C58.9778 147.492 61.1138 147.916 65.2188 147.778C67.7638 147.693 69.2657 147.471 71.2125 146.894ZM144.204 201.732C140.142 201.205 135.163 199.715 131.803 198.021C126.813 195.506 120.875 190.178 117.675 185.346C109.464 172.946 105.967 156.978 105.966 131.882L105.966 125.755L103.235 125.751C101.732 125.748 100.334 125.639 100.126 125.507C99.841 125.326 99.7691 124.159 99.831 120.714L99.9127 116.159L105.917 115.991L106.077 114.894C106.165 114.291 106.319 113.066 106.42 112.173C106.52 111.28 106.936 109.032 107.344 107.177C111.058 90.2782 121.664 79.8063 137.115 77.7804C149.45 76.1634 159.643 79.3387 167.641 87.2915C168.677 88.3216 169.549 89.1262 169.579 89.0796C174.463 81.5113 178.566 77.6707 185.746 73.945C191.322 71.0519 195.966 70.0312 202.13 70.3436C212.808 70.8848 221.792 74.7879 229.087 82.0559C235.203 88.1487 239.831 96.031 240.67 101.784C241.124 104.899 240.653 106.472 239.028 107.265C238.052 107.742 237.728 107.771 236.731 107.473C235.297 107.043 234.241 105.666 232.505 101.966C229.473 95.5035 223.297 88.0916 217.986 84.542C214.941 82.5072 212.264 81.2962 208.721 80.3501C206.318 79.7086 205.251 79.5968 201.335 79.5757C196.01 79.5469 194.453 79.8752 190.216 81.9192C182.95 85.4239 177.568 91.5027 176.516 97.3918C176.176 99.2925 176.203 99.8431 176.78 102.958C177.133 104.86 177.421 107.204 177.42 108.167C177.418 111.484 175.839 113.354 173.039 113.354C170.192 113.354 169.125 112.1 168.248 107.723C167.088 101.939 164.869 97.6172 161.151 93.899C156.076 88.8244 150.471 86.4832 143.402 86.486C132.595 86.4902 124.687 90.8024 120.388 99.036C118.397 102.847 117.227 106.929 115.836 114.904L115.643 116.01L186.425 116.16L186.507 120.714C186.569 124.16 186.497 125.327 186.212 125.508C186.004 125.639 184.76 125.749 183.447 125.752L181.059 125.756L179.503 129.964C174.961 142.246 170.285 148.612 161.724 154.163C160.148 155.185 158.854 156.088 158.848 156.169C158.841 156.25 159.902 156.957 161.203 157.739C164.596 159.781 168.449 163.098 170.378 165.638C173.717 170.035 175.08 173.964 175.084 179.2C175.093 190.825 168.114 199.321 156.792 201.468C154.496 201.903 146.77 202.066 144.202 201.733L144.204 201.732ZM155.425 191.738C159.686 190.562 162.875 188.161 164.464 184.932C165.25 183.336 165.421 182.6 165.541 180.304C165.665 177.925 165.588 177.301 164.942 175.444C164.535 174.272 163.591 172.458 162.845 171.413C160.305 167.854 155.207 163.741 151.373 162.158C149.147 161.24 147.948 161.199 138.299 161.706C134.564 161.902 118.033 162.073 118.033 162.073L118.221 162.737C121.583 174.634 127.118 183.385 134.405 188.327C136.963 190.062 140.788 191.559 144.301 192.202C146.428 192.591 153.381 192.3 155.423 191.737L155.425 191.738ZM139.188 152.31C145.187 151.911 147.456 151.469 151 150.01C158.615 146.874 162.839 143.017 166.889 135.499C168.208 133.049 170.642 127.746 171.055 126.419L171.262 125.755H115.416L115.424 130.258C115.433 134.826 115.823 144.915 116.185 149.893L116.383 152.624C116.383 152.624 136.593 152.483 139.188 152.31Z" fill="white"></path>
</svg><style>@media (prefers-color-scheme: light) { :root { filter: none; } }
</style></svg>