<svg width="1024" height="1024" viewBox="0 0 1024 1024" fill="none" xmlns="http://www.w3.org/2000/svg">
<rect width="1024" height="1024" fill="white"/>
<circle cx="512" cy="512" r="381" fill="#FF0000" stroke="url(#paint0_angular_361_641)" stroke-width="50"/>
<circle cx="512" cy="512" r="406" fill="#662538"/>
<path d="M382.778 712.274C380.26 711.101 375.669 707.719 372.575 704.757C355.809 688.703 346.391 665.434 341.382 627.68C338.832 608.463 339.16 595.516 343.071 560.955C343.979 552.935 344.565 546.217 344.374 546.027C344.183 545.836 342.941 546.448 341.613 547.386C337.434 550.34 325.71 555.875 318.594 558.254C297.666 565.25 273.319 564.295 255.885 555.795C238.838 547.482 225.926 532.324 221.422 515.338C218.04 502.581 218.975 482.799 223.615 468.946C230.533 448.291 244.529 436.112 267.66 430.619C287.783 425.841 317.601 426.964 336.189 433.201C360.22 441.264 372.569 457.998 375.821 486.912C377.101 498.286 375.691 537.844 372.708 574.249C368.913 620.557 369.013 629.123 373.615 652.127C376.781 667.951 380.218 677.319 388.421 692.478C398.822 711.703 398.354 710.634 397.263 712.672C395.88 715.257 388.764 715.06 382.778 712.274ZM310.644 532.617C329.664 526.978 341.759 517.3 345.728 504.545C349.777 491.536 345.94 475.438 336.776 466.989C327.929 458.835 316.585 455.58 297.057 455.593C275.975 455.608 264.47 459.232 255.808 468.59C249.979 474.885 247.567 480.968 246.988 490.831C245.934 508.778 252.916 522.749 266.512 529.892C275.011 534.357 281.232 535.594 293.188 535.192C300.6 534.943 304.974 534.298 310.644 532.617ZM523.233 692.331C511.401 690.798 496.899 686.459 487.113 681.525C472.58 674.198 455.286 658.681 445.966 644.608C422.052 608.493 411.866 561.986 411.864 488.894L411.863 471.05L403.909 471.037C399.533 471.03 395.46 470.711 394.856 470.327C394.025 469.8 393.815 466.401 393.996 456.366L394.234 443.102L411.722 442.613L412.187 439.417C412.442 437.66 412.891 434.093 413.185 431.492C413.478 428.891 414.689 422.342 415.877 416.94C426.694 367.723 457.583 337.224 502.586 331.323C538.512 326.614 568.198 335.862 591.491 359.024C594.509 362.025 597.049 364.368 597.137 364.232C611.363 342.19 623.311 331.004 644.223 320.153C660.462 311.726 673.988 308.754 691.94 309.664C723.041 311.24 749.208 322.608 770.454 343.776C788.267 361.521 801.746 384.478 804.19 401.235C805.513 410.308 804.141 414.887 799.407 417.199C796.565 418.587 795.622 418.672 792.717 417.802C788.541 416.551 785.464 412.54 780.409 401.765C771.579 382.942 753.591 361.355 738.121 351.016C729.253 345.09 721.457 341.563 711.136 338.808C704.138 336.939 701.032 336.614 689.627 336.552C674.118 336.468 669.581 337.425 657.241 343.377C636.08 353.585 620.404 371.29 617.341 388.441C616.352 393.977 616.428 395.581 618.11 404.654C619.136 410.191 619.975 417.019 619.974 419.826C619.966 429.486 615.368 434.932 607.213 434.932C598.921 434.932 595.814 431.28 593.259 418.532C589.881 401.685 583.42 389.098 572.589 378.269C557.809 363.489 541.484 356.67 520.896 356.678C489.42 356.691 466.389 369.25 453.867 393.23C448.07 404.331 444.66 416.218 440.61 439.445L440.048 442.667L646.201 443.104L646.439 456.368C646.619 466.404 646.41 469.802 645.579 470.33C644.975 470.713 641.352 471.033 637.527 471.04L630.573 471.052L626.041 483.307C612.81 519.08 599.192 537.619 574.26 553.787C569.668 556.764 565.899 559.394 565.883 559.63C565.863 559.867 568.953 561.925 572.741 564.204C582.623 570.15 593.847 579.812 599.463 587.208C609.188 600.015 613.159 611.459 613.17 626.708C613.195 660.567 592.869 685.31 559.893 691.564C553.209 692.832 530.705 693.305 523.226 692.335L523.233 692.331ZM555.914 663.224C568.323 659.801 577.612 652.808 582.24 643.402C584.528 638.755 585.027 636.609 585.376 629.924C585.738 622.995 585.514 621.177 583.633 615.768C582.445 612.355 579.697 607.073 577.525 604.029C570.127 593.662 555.279 581.685 544.11 577.074C537.63 574.4 534.138 574.279 506.034 575.756C495.155 576.327 447.009 576.824 447.009 576.824L447.556 578.759C457.35 613.409 473.47 638.896 494.692 653.289C502.141 658.342 513.282 662.705 523.514 664.576C529.708 665.709 549.959 664.862 555.908 663.221L555.914 663.224ZM508.624 548.392C526.095 547.229 532.703 545.942 543.025 541.691C565.205 532.559 577.506 521.324 589.302 499.428C593.145 492.293 600.232 476.849 601.436 472.983L602.039 471.048H439.387L439.411 484.163C439.436 497.47 440.572 526.854 441.626 541.352L442.204 549.307C442.204 549.307 501.066 548.895 508.624 548.392Z" fill="white"/>
<defs>
<radialGradient id="paint0_angular_361_641" cx="0" cy="0" r="1" gradientUnits="userSpaceOnUse" gradientTransform="translate(512 512) rotate(90) scale(406)">
<stop stop-color="#FF67D4"/>
<stop offset="0.57" stop-color="#0072DC"/>
<stop offset="1" stop-color="#FF67D4"/>
</radialGradient>
</defs>
</svg>
